<svg xmlns="http://www.w3.org/2000/svg" width="148" height="50" viewBox="0 0 148 50">
  <g fill="none">
    <rect width="148" height="50" fill="#000" rx="6"/>
    <path fill="#FFF" d="M19.3732701,15.0554 C19.3411049,11.4789 22.3078186,9.7389 22.4434936,9.6579 C20.7632877,7.2132 18.159109,6.8792 17.243954,6.8526 C15.0568206,6.6229 12.93522,8.1586 11.8209614,8.1586 C10.6846581,8.1586 8.96888016,6.8748 7.11973189,6.9125 C4.74010833,6.9491 2.51399594,8.324 1.29312119,10.4591 C-1.22658632,14.8124 0.652622884,21.2098 3.06671632,24.7286 C4.27416385,26.4531 5.68532431,28.3762 7.53226811,28.3085 C9.33913067,28.2352 10.0140988,27.1588 12.194719,27.1588 C14.3550982,27.1588 14.9889831,28.3085 16.8726012,28.2641 C18.8118321,28.2352 20.0327068,26.5341 21.1980691,24.7941 C22.5934976,22.8211 23.1540339,20.8735 23.1761787,20.7737 C23.1316886,20.7592 19.4111469,19.3422 19.3733703,15.0554 M15.8150575,4.5378 C16.7870278,3.3248 17.4518754,1.6748 17.2673013,0.0002 C15.8607502,0.0624 14.1015843,0.9712 13.088631,2.1575 C12.1924144,3.2028 11.3917915,4.9162 11.5986107,6.5275 C13.1787136,6.6451 14.8011022,5.7318 15.8151578,4.5378" transform="translate(13.026 8.8)"/>
    <path fill="#FFF" d="M12.5783968,15.061 L10.0531781,15.061 L8.66987407,10.7232 L3.86182803,10.7232 L2.54415708,15.061 L0.0856736628,15.061 L4.85033175,0.2932 L7.7925958,0.2932 L12.5783968,15.061 Z M8.25292891,8.9033 L7.00199323,5.0483 C6.86972512,4.6533 6.62062018,3.7255 6.25588084,2.2652 L6.21139066,2.2652 C6.06459309,2.8932 5.8300176,3.8209 5.50866622,5.0482 L4.27887339,8.9033 L8.25292891,8.9033 Z M24.8075856,9.6058 C24.8075856,11.4168 24.3149871,12.8483 23.3286879,13.8992 C22.4457982,14.8346 21.3482735,15.3018 20.0395206,15.3018 C18.6262559,15.3018 17.6099959,14.7991 16.992845,13.7904 L16.992845,19.3777 L14.6221395,19.3777 L14.6221395,7.9124 C14.6221395,6.7749 14.5920785,5.6087 14.5342613,4.4124 L16.6191875,4.4124 L16.7514557,6.1014 L16.796046,6.1014 C17.5866486,4.8285 18.7863805,4.1927 20.3964441,4.1927 C21.6551957,4.1927 22.7060257,4.6887 23.5466297,5.6819 C24.3861313,6.6773 24.8075856,7.9845 24.8075856,9.6058 Z M22.39239,9.6923 C22.39239,8.6559 22.1589167,7.8014 21.6896655,7.1289 C21.1770264,6.4287 20.4887312,6.0769 19.6258822,6.0769 C19.0409966,6.0769 18.5095193,6.2723 18.0346567,6.6584 C17.5587921,7.0457 17.2474611,7.5528 17.1017657,8.182 C17.0284171,8.4739 16.9917427,8.7125 16.9917427,8.9011 L16.9917427,10.6788 C16.9917427,11.4512 17.2296249,12.1048 17.7055897,12.6397 C18.1815545,13.1723 18.7998077,13.4397 19.5603494,13.4397 C20.4531591,13.4397 21.1481679,13.0947 21.6451754,12.41 C22.1433852,11.723 22.39239,10.8176 22.39239,9.6923 Z M37.0801625,9.6058 C37.0801625,11.4168 36.587564,12.8483 35.6011645,13.8992 C34.7172729,14.8346 33.6208504,15.3018 32.3109953,15.3018 C30.8988328,15.3018 29.8824726,14.7991 29.2642194,13.7904 L29.2642194,19.3777 L26.8936141,19.3777 L26.8936141,7.9124 C26.8936141,6.7749 26.8635531,5.6087 26.805736,4.4124 L28.8906622,4.4124 L29.0229303,6.1014 L29.0674204,6.1014 C29.8569208,4.8285 31.0567529,4.1927 32.6679188,4.1927 C33.9254678,4.1927 34.9774001,4.6887 35.8192065,5.6819 C36.657606,6.6773 37.0801625,7.9845 37.0801625,9.6058 Z M34.6638646,9.6923 C34.6638646,8.6559 34.4292891,7.8014 33.9600379,7.1289 C33.448501,6.4287 32.7613081,6.0769 31.898459,6.0769 C31.3135735,6.0769 30.7820961,6.2723 30.3050291,6.6584 C29.8302668,7.0457 29.5189357,7.5528 29.3731401,8.182 C29.3009939,8.4739 29.2620149,8.7125 29.2620149,8.9011 L29.2620149,10.6788 C29.2620149,11.4512 29.5010995,12.1048 29.9747596,12.6397 C30.4507244,13.1712 31.0689777,13.4397 31.8317238,13.4397 C32.725736,13.4397 33.4207448,13.0947 33.91665,12.41 C34.4147596,11.723 34.6638646,10.8176 34.6638646,9.6923 Z M50.8015762,10.9196 C50.8015762,12.1758 50.3622857,13.1978 49.4861097,13.9868 C48.5231578,14.848 47.1788328,15.2796 45.4553392,15.2796 C43.8630115,15.2796 42.586524,14.9733 41.6235721,14.3596 L42.1716831,12.3878 C43.2113907,13.0014 44.3534056,13.3088 45.5965254,13.3088 C46.4905376,13.3088 47.1854462,13.1068 47.6814516,12.7062 C48.1795613,12.3034 48.4297684,11.7674 48.4297684,11.0972 C48.4297684,10.4968 48.2229492,9.993 47.8137197,9.5836 C47.4033879,9.1763 46.7251131,8.7946 45.7732837,8.4461 C43.182432,7.4818 41.8859039,6.0703 41.8859039,4.216 C41.8859039,3.0042 42.3440325,2.0121 43.2569831,1.2365 C44.1710359,0.4619 45.3829926,0.0746 46.890849,0.0746 C48.2373785,0.0746 49.3593527,0.3088 50.2500582,0.7759 L49.6551523,2.7046 C48.8167529,2.2518 47.8705349,2.0255 46.811889,2.0255 C45.975694,2.0255 45.3185619,2.2308 44.850413,2.6391 C44.4556127,3.0042 44.2544049,3.4492 44.2544049,3.9774 C44.2544049,4.56 44.482367,5.0438 44.9370887,5.4222 C45.3307867,5.7729 46.0490427,6.1535 47.0876479,6.5619 C48.3619309,7.0746 49.2971266,7.6716 49.8975437,8.3574 C50.5012674,9.0432 50.8015762,9.8987 50.8015762,10.9196 Z M58.6597048,6.188 L56.046608,6.188 L56.046608,11.358 C56.046608,12.673 56.5069411,13.3288 57.4298118,13.3288 C57.8534705,13.3288 58.2048829,13.2933 58.4829465,13.2189 L58.5484794,15.0155 C58.0815328,15.1897 57.4665863,15.2774 56.7059445,15.2774 C55.7686445,15.2774 55.0380636,14.9911 54.5087908,14.4218 C53.9817224,13.8514 53.7181882,12.896 53.7181882,11.5511 L53.7181882,6.1835 L52.1625349,6.1835 L52.1625349,4.408 L53.7181882,4.408 L53.7181882,2.4582 L56.046608,1.7569 L56.046608,4.4079 L58.6597048,4.4079 L58.6597048,6.1879 L58.6597048,6.188 Z M70.4262559,9.649 C70.4262559,11.2858 69.958107,12.6297 69.020807,13.6806 C68.0411212,14.7614 66.7379797,15.3018 65.1133866,15.3018 C63.5455085,15.3018 62.2990819,14.7836 61.3694976,13.7471 C60.4399133,12.7107 59.9750711,11.4035 59.9750711,9.8266 C59.9750711,8.1765 60.4565471,6.8249 61.4127854,5.774 C62.3713284,4.7231 63.6633473,4.196 65.2879404,4.196 C66.8547163,4.196 68.1111632,4.7165 69.0640948,5.7518 C69.9737387,6.7583 70.4262559,8.0555 70.4262559,9.649 Z M67.9688747,9.7034 C67.9688747,8.728 67.7576466,7.8913 67.3339878,7.1911 C66.8369804,6.3455 66.1241354,5.9238 65.2034692,5.9238 C64.2549465,5.9238 63.5244658,6.3455 63.0295626,7.1911 C62.6036994,7.8913 62.3935735,8.7424 62.3935735,9.7478 C62.3935735,10.7243 62.6036994,11.5633 63.0295626,12.2602 C63.5422018,13.1068 64.257151,13.5296 65.1845308,13.5296 C66.0896655,13.5296 66.8002058,13.0969 67.3150494,12.2402 C67.7498307,11.5233 67.9688747,10.6811 67.9688747,9.7034 Z M78.1353825,6.493 C77.900807,6.4498 77.6493974,6.4287 77.3881679,6.4287 C76.5541774,6.4287 75.9092701,6.7405 75.4555504,7.3708 C75.0608504,7.9257 74.8640515,8.627 74.8640515,9.4738 L74.8640515,15.061 L72.493346,15.061 L72.493346,7.766 C72.493346,6.5398 72.4699986,5.4201 72.4244062,4.4136 L74.4892918,4.4136 L74.5760677,6.451 L74.6417007,6.451 C74.89291,5.7508 75.286608,5.186 75.8270034,4.7643 C76.3562762,4.3825 76.9256303,4.1928 77.5404766,4.1928 C77.7595206,4.1928 77.957522,4.2094 78.1331781,4.2361 L78.1353825,6.4931 L78.1353825,6.493 Z M88.7378741,9.233 C88.7378741,9.6568 88.7100176,10.0141 88.6510982,10.306 L81.5401842,10.306 C81.565736,11.358 81.9115369,12.1636 82.5709736,12.7185 C83.1701882,13.2134 83.9464617,13.4619 84.8970887,13.4619 C85.9502234,13.4619 86.9108707,13.2955 87.7749221,12.9581 L88.1462749,14.6005 C87.1366283,15.0388 85.9435098,15.2585 84.5690237,15.2585 C82.9145701,15.2585 81.6157373,14.7725 80.6706215,13.8026 C79.7287123,12.8316 79.2551523,11.5256 79.2551523,9.8921 C79.2551523,8.2875 79.6932404,6.9503 80.5738253,5.8839 C81.4945917,4.7453 82.7388138,4.176 84.3043873,4.176 C85.8423047,4.176 87.0064645,4.7453 87.7959648,5.8839 C88.4231361,6.786 88.7378741,7.9046 88.7378741,9.2329 L88.7378741,9.233 Z M86.4772918,8.6193 C86.4939255,7.9168 86.3382099,7.3131 86.0168585,6.8005 C85.6065267,6.1413 84.9749465,5.8128 84.1287312,5.8128 C83.3526581,5.8128 82.7221801,6.1335 82.2418064,6.7772 C81.8470061,7.2887 81.6125308,7.9046 81.5401842,8.617 L86.4771916,8.6193 L86.4772918,8.6193 Z" transform="translate(45.993 21.8)"/>
    <path fill="#FFF" d="M6.20798375,7.7078 L4.96606635,7.7078 L4.28668923,5.5761 L1.92379959,5.5761 L1.27548544,7.7078 L0.0668354773,7.7078 L2.40858226,0.4493 L3.85411239,0.4493 L6.20808395,7.7078 L6.20798375,7.7078 Z M4.08197427,4.6816 L3.46702776,2.7863 C3.40259716,2.5921 3.28365606,2.1404 3.10008395,1.4191 L3.07783886,1.4191 C3.00228571,1.731 2.89446716,2.1837 2.73213812,2.7863 L2.12831415,4.6816 L4.08197427,4.6816 Z M12.0634529,2.4745 L10.0776276,7.7078 L8.94453081,7.7078 L7.02303588,2.4745 L8.2750738,2.4745 L9.17139066,5.242 C9.32259716,5.7048 9.45155856,6.1464 9.54825457,6.5659 L9.58051997,6.5659 C9.66729587,6.1897 9.79625728,5.7481 9.95748409,5.242 L10.8425782,2.4745 L12.0635531,2.4745 L12.0634529,2.4745 Z M16.2911225,7.7078 L16.2044469,7.1052 L16.1721814,7.1052 C15.8163602,7.5902 15.2982099,7.8265 14.6398754,7.8265 C13.7013731,7.8265 13.0320162,7.1695 13.0320162,6.2863 C13.0320162,4.9946 14.1539905,4.3265 16.0965281,4.3265 L16.0965281,4.23 C16.0965281,3.5409 15.7295843,3.1958 15.0068192,3.1958 C14.4887691,3.1958 14.0350494,3.3256 13.6369425,3.5842 L13.4000623,2.8196 C13.8860474,2.5177 14.4897712,2.3668 15.2025159,2.3668 C16.5724929,2.3668 17.2640948,3.0881 17.2640948,4.5318 L17.2640948,6.4594 C17.2640948,6.9876 17.2863399,7.3971 17.3397481,7.7089 L16.2911225,7.7078 Z M16.1287935,5.1011 C14.8333676,5.1011 14.1862559,5.4141 14.1862559,6.1564 C14.1862559,6.7057 14.5209343,6.9743 14.9845741,6.9743 C15.5783778,6.9743 16.1287935,6.5226 16.1287935,5.909 L16.1287935,5.1011 Z M19.8593555,1.6122 C19.4712688,1.6122 19.1688558,1.3104 19.1688558,0.912 C19.1688558,0.5136 19.4812891,0.2229 19.8816005,0.2229 C20.2808097,0.2229 20.6043656,0.5136 20.5932431,0.912 C20.5932431,1.3326 20.2919323,1.6122 19.8593555,1.6122 Z M19.2989194,2.4745 L20.4642817,2.4745 L20.4642817,7.7078 L19.2989194,7.7078 L19.2989194,2.4745 Z M22.5346784,0.073 L23.7000406,0.073 L23.7000406,7.7078 L22.5346784,7.7078 L22.5346784,0.073 Z M28.6526798,7.7078 L28.5648016,7.1052 L28.5337387,7.1052 C28.1778172,7.5902 27.6596669,7.8265 27.0014326,7.8265 C26.0629303,7.8265 25.3935735,7.1695 25.3935735,6.2863 C25.3935735,4.9946 26.5154475,4.3265 28.4580853,4.3265 L28.4580853,4.23 C28.4580853,3.5409 28.0911415,3.1958 27.3683764,3.1958 C26.8502261,3.1958 26.3965064,3.3256 25.9983995,3.5842 L25.7605173,2.8185 C26.2464022,2.5166 26.8502261,2.3657 27.5629709,2.3657 C28.9328477,2.3657 29.6255518,3.087 29.6255518,4.5307 L29.6255518,6.4583 C29.6255518,6.9865 29.6477969,7.3959 29.6990007,7.7078 L28.6526798,7.7078 Z M28.4903507,5.1011 C27.1949248,5.1011 26.5477129,5.4141 26.5477129,6.1564 C26.5477129,6.7057 26.8823913,6.9743 27.3461313,6.9743 C27.939935,6.9743 28.4902505,6.5226 28.4902505,5.909 L28.4902505,5.1011 L28.4903507,5.1011 Z M34.3458199,7.8265 C33.601912,7.8265 33.0525985,7.5135 32.695675,6.8999 L32.6734299,6.8999 L32.6066947,7.7078 L31.6148842,7.7078 C31.6459472,7.2883 31.6571699,6.8134 31.6571699,6.2974 L31.6571699,0.073 L32.8246364,0.073 L32.8246364,3.24 L32.8457793,3.24 C33.1915802,2.6586 33.7520162,2.3678 34.5181693,2.3678 C35.7813297,2.3678 36.666524,3.4453 36.666524,5.0167 C36.666524,6.6413 35.6835315,7.8264 34.3458199,7.8264 L34.3458199,7.8265 Z M34.1089397,3.2812 C33.4384807,3.2812 32.8246364,3.8627 32.8246364,4.6705 L32.8246364,5.586 C32.8246364,6.3073 33.3761544,6.9 34.0877969,6.9 C34.9606662,6.9 35.4811212,6.1897 35.4811212,5.059 C35.480019,4.0036 34.9396236,3.2812 34.1089397,3.2812 Z M38.3910196,0.073 L39.5552796,0.073 L39.5552796,7.7078 L38.3910196,7.7078 L38.3910196,0.073 Z M45.8978362,5.3708 L42.3996452,5.3708 C42.4229926,6.3618 43.0790223,6.921 44.0497901,6.921 C44.5690427,6.921 45.043805,6.8344 45.4641571,6.6735 L45.6454245,7.4814 C45.1494191,7.6967 44.5668382,7.8044 43.8874611,7.8044 C42.2461341,7.8044 41.2754665,6.7701 41.2754665,5.1666 C41.2754665,3.562 42.2694814,2.3557 43.7572972,2.3557 C45.0939066,2.3557 45.9378172,3.3467 45.9378172,4.8437 C45.9412241,5.0478 45.9312038,5.2309 45.897736,5.3707 L45.8978362,5.3708 Z M44.8303724,4.5418 C44.8303724,3.734 44.4189384,3.1636 43.6739282,3.1636 C43.0045714,3.1636 42.477503,3.7451 42.3996452,4.5418 L44.8303724,4.5418 Z M52.9608531,7.8265 C51.4286473,7.8265 50.4357346,6.6846 50.4357346,5.1344 C50.4357346,3.5187 51.4497901,2.3668 53.0487312,2.3668 C54.5576899,2.3668 55.5739499,3.4543 55.5739499,5.0489 C55.5739499,6.6846 54.5265267,7.8265 52.9608531,7.8265 Z M53.0053433,3.2168 C52.1636371,3.2168 51.6243439,4.0025 51.6243439,5.1011 C51.6243439,6.1786 52.1747596,6.9643 52.9942207,6.9643 C53.813782,6.9643 54.3641977,6.1243 54.3641977,5.0789 C54.3641977,4.0136 53.8249045,3.2169 53.0054435,3.2169 L53.0053433,3.2168 Z M61.8386486,7.7078 L60.6755911,7.7078 L60.6755911,4.7028 C60.6755911,3.7772 60.3186676,3.3134 59.6170454,3.3134 C58.9264455,3.3134 58.4505809,3.906 58.4505809,4.5951 L58.4505809,7.7078 L57.2875234,7.7078 L57.2875234,3.9703 C57.2875234,3.5076 57.2740961,3.0116 57.2430332,2.4733 L58.2682112,2.4733 L58.3227217,3.2813 L58.3560894,3.2813 C58.6663182,2.7219 59.3045118,2.3657 60.0172566,2.3657 C61.1158835,2.3657 61.8386486,3.2057 61.8386486,4.5729 L61.8386486,7.7078 Z M69.463304,3.3467 L68.1812051,3.3467 L68.1812051,5.8879 C68.1812051,6.5349 68.4069628,6.8577 68.8595802,6.8577 C69.0640948,6.8577 69.2386486,6.8356 69.3776303,6.8034 L69.4098957,7.6867 C69.1830359,7.7732 68.8795206,7.8165 68.504761,7.8165 C67.585197,7.8165 67.038088,7.3105 67.038088,5.9855 L67.038088,3.3467 L66.2742397,3.3467 L66.2742397,2.4745 L67.038088,2.4745 L67.038088,1.5157 L68.1812051,1.1706 L68.1812051,2.4734 L69.463304,2.4734 L69.463304,3.3467 Z M75.6346134,7.7078 L74.468149,7.7078 L74.468149,4.7249 C74.468149,3.7883 74.1112255,3.3145 73.4107055,3.3145 C72.8068815,3.3145 72.2464455,3.724 72.2464455,4.5529 L72.2464455,7.7078 L71.0800812,7.7078 L71.0800812,0.073 L72.2464455,0.073 L72.2464455,3.2167 L72.2686906,3.2167 C72.6345322,2.6464 73.1649072,2.3657 73.8443846,2.3657 C74.9551361,2.3657 75.6346134,3.2267 75.6346134,4.595 L75.6346134,7.7077 L75.6346134,7.7078 Z M81.5890833,5.3708 L78.0919946,5.3708 C78.1142397,6.3618 78.7702695,6.921 79.7421395,6.921 C80.2624942,6.921 80.7361544,6.8344 81.154302,6.6735 L81.3366716,7.4814 C80.8418687,7.6967 80.2580853,7.8044 79.5775058,7.8044 C77.9373812,7.8044 76.9667136,6.7701 76.9667136,5.1666 C76.9667136,3.562 77.9597265,2.3557 79.4474421,2.3557 C80.7851537,2.3557 81.6279621,3.3467 81.6279621,4.8437 C81.632371,5.0478 81.6212485,5.2309 81.5890833,5.3707 L81.5890833,5.3708 Z M80.5205173,4.5418 C80.5205173,3.734 80.1112877,3.1636 79.3661774,3.1636 C78.6968206,3.1636 78.1687502,3.7451 78.0919946,4.5418 L80.5205173,4.5418 Z" transform="translate(46.895 9.1)"/>
  </g>
</svg>
