<svg xmlns="http://www.w3.org/2000/svg" xmlns:xlink="http://www.w3.org/1999/xlink" width="148" height="50" viewBox="0 0 148 50">
  <defs>
    <linearGradient id="googleplay-a" x1="58.917%" x2="90.81%" y1="21.865%" y2="57.555%">
      <stop offset="0%" stop-color="#FF177B"/>
      <stop offset="100%" stop-color="#FFEC73"/>
    </linearGradient>
    <linearGradient id="googleplay-b" x1="37.103%" x2="0%" y1="41.794%" y2="54.456%">
      <stop offset="0%" stop-color="#064AA2"/>
      <stop offset="100%" stop-color="#63FFD4"/>
    </linearGradient>
    <path id="googleplay-c" d="M13.9282329,12.7 L0.501015572,0 C0.187758846,0.0726186853 0,0.306462999 0,0.7 L0,12.7 L0,25 C0,25.3338867 0.134870543,25.5325411 0.300609343,25.6 L13.9282329,12.7 Z"/>
    <path id="googleplay-e" d="M0.554561166,12.8785198 L8.31550054,8.6238085 C10.2266519,7.56695888 11.7433893,6.7282093 11.7433893,6.7282093 L17.3872644,3.69446714 L13.629831,0.0507964851 L0.00236645219,12.9524017 C0.154257131,13.0011528 0.421968946,12.9745054 0.630826954,12.8716318"/>
    <linearGradient id="googleplay-f" x1="78.645%" x2="2.495%" y1="50%" y2="84.502%">
      <stop offset="0%" stop-color="#FF4521"/>
      <stop offset="100%" stop-color="#8A33DB"/>
    </linearGradient>
    <linearGradient id="googleplay-h" x1="34.72%" x2="54.347%" y1="-24.186%" y2="100%">
      <stop offset="0%" stop-color="#00A3B5"/>
      <stop offset="100%" stop-color="#D6FFA1"/>
    </linearGradient>
    <path id="googleplay-i" d="M0.814553505,0.214687426 C0.55606823,0.0765297171 0.299243238,0.0370077565 0.0914889416,0.092865807 L13.5298541,12.8113403 L17.2476586,9.30020155 L11.6436019,6.20225581 C11.6436019,6.20225581 6.3615968,3.2817123 3.1722911,1.51823037 L0.814553505,0.214687426 Z"/>
  </defs>
  <g fill="none" fill-rule="evenodd">
    <rect width="148" height="50" fill="#000" fill-rule="nonzero" rx="6"/>
    <g transform="translate(6 11)">
      <path fill="url(#googleplay-a)" fill-rule="nonzero" d="M12.0423354,6.20225581 C12.0423354,6.20225581 1.83109757,0.556224806 1.2313757,0.224515504 C0.63065595,-0.107193798 0.0329298201,0.0940232558 0.0329298201,0.787325581 L0.0329298201,12.8404264 L0.0329298201,25.1385736 C0.0329298201,25.6575543 0.460019609,25.8826783 0.981907365,25.5947984 C1.50279725,25.3069186 12.0423354,19.4785969 12.0423354,19.4785969 C12.0423354,19.4785969 13.4741134,18.6873586 14.1900023,18.2917395 C15.3421323,17.6550421 17.6463921,16.3816473 17.6463921,16.3816473 C17.6463921,16.3816473 22.4012586,13.7518798 23.0339103,13.4032364 C23.6655641,13.0535969 23.6046939,12.5744612 23.0718294,12.2985349 C22.5379673,12.0236047 17.6463921,9.30020155 17.6463921,9.30020155 L12.0423354,6.20225581 Z"/>
      <g transform="translate(0 .1)">
        <path fill="url(#googleplay-b)" fill-rule="nonzero" d="M13.9282329,12.7 L0.501015572,0 C0.187758846,0.0726186853 0,0.306462999 0,0.7 L0,12.7 L0,25 C0,25.3338867 0.134870543,25.5325411 0.300609343,25.6 L13.9282329,12.7 Z"/>
        <mask id="googleplay-d" fill="#fff">
          <use xlink:href="#googleplay-c"/>
        </mask>
        <path d="M17.6357481,9.2 L12.0243737,6.1 C12.004722,6.1451092 1.79746648,0.488708221 1.20243737,0.2 C0.597493019,-0.175928874 0,0.0256577526 0,0.7 L0,12.8 C0,12.795472 0,24.5952753 0,25.1 C0,25.6361409 0.426923226,25.8616784 0.90182803,25.6 C1.46929419,25.2848612 12.004722,19.4458347 12.0243737,19.4 L17.6357481,16.3 C17.6065931,16.343197 22.3596052,13.7085995 22.9465132,13.4 C23.6234177,13.009034 23.5625712,12.5290184 23.0467163,12.3 C22.4962605,11.97715 17.6065931,9.24874489 17.6357481,9.2" mask="url(#googleplay-d)"/>
      </g>
      <g transform="translate(.299 12.75)">
        <mask id="googleplay-g" fill="#fff">
          <use xlink:href="#googleplay-e"/>
        </mask>
        <path fill="url(#googleplay-f)" fill-rule="nonzero" d="M11.7254276,-6.5503876 C11.7057758,-6.50527839 1.49852026,-12.1616794 0.903491152,-12.4503876 C0.298546798,-12.8263165 -0.298946221,-12.6247298 -0.298946221,-11.9503876 L-0.298946221,0.149612403 C-0.298946221,0.145084368 -0.298946221,11.9448877 -0.298946221,12.4496124 C-0.298946221,12.9857533 0.127977005,13.2112908 0.602881809,12.9496124 C1.17034797,12.6344736 11.7057758,6.79544713 11.7254276,6.7496124 L17.336802,3.6496124 C17.307647,3.6928094 22.0606591,1.05821191 22.647567,0.749612403 C23.3244714,0.358646438 23.2636249,-0.121369242 22.7477701,-0.350387597 C22.1973144,-0.673237581 17.307647,-3.40164271 17.336802,-3.4503876 L11.7254276,-6.5503876 Z" mask="url(#googleplay-g)"/>
      </g>
      <g transform="translate(.399)">
        <path fill="url(#googleplay-h)" fill-rule="nonzero" d="M0.814553505,0.214687426 C0.55606823,0.0765297171 0.299243238,0.0370077565 0.0914889416,0.092865807 L13.5298541,12.8113403 L17.2476586,9.30020155 L11.6436019,6.20225581 C11.6436019,6.20225581 6.3615968,3.2817123 3.1722911,1.51823037 L0.814553505,0.214687426 Z"/>
        <mask id="googleplay-j" fill="#fff">
          <use xlink:href="#googleplay-i"/>
        </mask>
        <path d="M17.2370146,9.3 L11.6256402,6.2 C11.6059885,6.2451092 1.39873293,0.588708221 0.803703818,0.3 C0.198759465,-0.075928874 -0.398733555,0.125657753 -0.398733555,0.8 L-0.398733555,12.9 C-0.398733555,12.895472 -0.398733555,24.6952753 -0.398733555,25.2 C-0.398733555,25.7361409 0.0281896714,25.9616784 0.503094475,25.7 C1.07056063,25.3848612 11.6059885,19.5458347 11.6256402,19.5 L17.2370146,16.4 C17.2078596,16.443197 21.9608717,13.8085995 22.5477797,13.5 C23.2246842,13.109034 23.1638376,12.6290184 22.6479828,12.4 C22.097527,12.07715 17.2078596,9.34874489 17.2370146,9.3" mask="url(#googleplay-j)"/>
      </g>
    </g>
    <g fill="#FFF" fill-rule="nonzero" transform="translate(34.77 20.1)">
      <path d="M66.5965199,14.7869801 L65.486901,15.8380368 C65.2304649,15.979512 64.9754038,16.1437612 64.7210302,16.2603919 C63.9503469,16.6116643 63.1666011,16.7 62.4701674,16.7 C61.7290464,16.7 60.5671778,16.6516914 59.3819342,15.7911085 C57.7353807,14.6268716 57.0155721,12.6255161 57.0155721,10.8815762 C57.0155721,7.27085464 59.9436186,5.5 62.3319807,5.5 C63.1666011,5.5 64.023909,5.70979728 64.7210302,6.15216588 C65.8801488,6.9216526 66.1798972,7.92164027 66.3462713,8.45717543 L60.8923635,10.6690184 L59.1062483,10.8084232 C59.6844326,13.7690492 61.6795467,15.4909052 63.8843472,15.4909052 C64.9857162,15.4909052 65.8031493,15.129971 66.5532077,14.7579949 C66.5532077,14.7579949 66.7037693,14.679321 66.5965199,14.7869801 Z M63.2641878,8.84775359 C63.7018968,8.68517832 63.929587,8.54483557 63.929587,8.21829551 C63.929587,7.28175081 62.8930868,6.2 61.6560832,6.2 C60.739885,6.2 59.0196344,6.9295044 59.0196344,9.46262158 C59.0196344,9.85794349 59.0658521,10.2789717 59.0889609,10.7 L63.2641878,8.84775359 Z"/>
      <path d="M55.2145335,14.660314 C55.2145335,15.5628579 55.3748809,15.7032995 56.1348182,15.7742087 C56.53089,15.8210226 56.9255915,15.8416758 57.3161814,15.8884896 L56.4609951,16.4 L52.38584,16.4 C52.9203314,15.7032995 53.0121544,15.6337671 53.0121544,15.169759 L53.0121544,14.6513643 L53.0032462,0.838519016 L51.2037915,0.838519016 L52.9360921,0 L56.243087,0 C55.5263202,0.41719419 55.3118383,0.671228276 55.2200155,1.48427504 L55.2145335,14.660314"/>
      <path d="M48.8920168 6.639776C49.4222118 7.0782492 50.5284377 8.00888621 50.5284377 9.77379249 50.5284377 11.4939566 49.5645092 12.3048223 48.5923712 13.0723225 48.2940938 13.3745042 47.9451914 13.7021545 47.9451914 14.2087734 47.9451914 14.7229641 48.2940938 15.0017422 48.5451668 15.2096212L49.379112 15.8573501C50.3929814 16.7184646 51.3172309 17.5079918 51.3172309 19.1118262 51.3172309 21.2966205 49.2156068 23.5 45.2442761 23.5 41.8989174 23.5 40.281652 21.8968539 40.281652 20.1780664 40.281652 19.3417321 40.6955461 18.1570973 42.0610544 17.3455433 43.4922385 16.4651552 45.4310415 16.3474489 46.4695393 16.2786148 46.1452653 15.8573501 45.7751551 15.4161235 45.7751551 14.6961188 45.7751551 14.3023878 45.8928241 14.0676635 46.0063885 13.7909505 45.7539473 13.8150424 45.4994537 13.8398227 45.2682204 13.8398227 42.8197462 13.8398227 41.4357665 12.0019522 41.4357665 10.1909271 41.4357665 9.12262192 41.9201252 7.93729875 42.9148392 7.0782492 44.2310908 5.98791709 45.8004676 5.8 47.0476228 5.8L51.8050102 5.8 50.3259374 6.639776 48.8920168 6.639776zM47.2678238 16.9252274C47.0767877 16.9 46.9623041 16.9 46.7319573 16.9 46.5209212 16.9 45.2636696 16.9462503 44.2898686 17.2784116 43.7746919 17.4697197 42.2857143 18.0352348 42.2857143 19.7149619 42.2857143 21.3911851 43.8933135 22.6 46.3802304 22.6 48.6147313 22.6 49.8009479 21.5117163 49.8009479 20.0464224 49.8009479 18.8404106 49.0333554 18.2041185 47.2678238 16.9252274zM47.9206579 12.4515284C48.4519864 11.9169682 48.4983074 11.1786026 48.4983074 10.7593263 48.4983074 9.09388646 47.5126248 6.5 45.6018857 6.5 45.005844 6.5 44.3600755 6.80124766 43.993595 7.26718653 43.6046353 7.74959451 43.4881517 8.37542109 43.4881517 8.97723019 43.4881517 10.5280724 44.3859606 13.1 46.3607318 13.1 46.9370189 13.1 47.5569022 12.8179663 47.9206579 12.4515284zM34.5036261 16.7C30.8261337 16.7 28.858497 13.8048704 28.858497 11.18352 28.858497 8.12065722 31.3320974 5.5 34.8505335 5.5 38.2517341 5.5 40.3818551 8.19204778 40.3818551 11.0185593 40.3818551 13.7792252 38.2764152 16.7 34.5036261 16.7zM37.3796141 14.8065395C37.9409717 14.0558479 38.0771835 13.1188737 38.0771835 12.2055323 38.0771835 10.1397404 37.103063 6.2 34.2240416 6.2 33.4583663 6.2 32.6871876 6.50236187 32.1313335 6.99587205 31.224631 7.81676715 31.0629655 8.84827293 31.0629655 9.86031633 31.0629655 12.1777289 32.1966877 16 35.0103549 16 35.9184333 16 36.8450862 15.5558408 37.3796141 14.8065395zM22.1782515 16.7C18.498541 16.7 16.5335139 13.8048704 16.5335139 11.18352 16.5335139 8.12065722 19.0088308 5.5 22.5273611 5.5 25.9279212 5.5 28.056872 8.19204778 28.056872 11.0185593 28.056872 13.7792252 25.9532984 16.7 22.1782515 16.7zM25.0556654 14.8065395C25.6131687 14.0558479 25.7522004 13.1188737 25.7522004 12.2055323 25.7522004 10.1397404 24.7748489 6.2 21.8971681 6.2 21.1283641 6.2 20.3650662 6.50236187 19.8075629 6.99587205 18.899039 7.81676715 18.7379824 8.84827293 18.7379824 9.86031633 18.7379824 12.1777289 19.8770788 16 22.6873086 16 23.5937677 16 24.5194986 15.5558408 25.0556654 14.8065395zM15.00792 16.0080409L11.8930036 16.7244878C10.6309256 16.924346 9.49760277 17.1 8.29749246 17.1 2.28936706 17.1 0 12.6581676 0 9.18174048 0 4.93630858 3.24367164 1 8.79874335 1 9.97406653 1 11.1046352 1.17357931 12.1346782 1.45573214 13.7671863 1.91630514 14.5307677 2.48406855 15.00792 2.81670461L13.1984593 4.54281603 12.4355664 4.71432069 12.9795063 3.84365792C12.2427776 3.12098707 10.8884363 1.7869851 8.3181484 1.7869851 4.88168795 1.7869851 2.28936706 4.41072978 2.28936706 8.24123105 2.28936706 12.3552682 5.24936375 16.2251879 9.99678807 16.2251879 11.3917528 16.2251879 12.1098911 15.9437266 12.7619304 15.6809372L12.7619304 12.1540269 9.47281564 12.3317555 11.2161773 11.3912461 15.8320921 11.3912461 15.2674963 11.9368799C15.1153309 12.0668915 15.0946749 12.1111507 15.051986 12.2854216 15.0292644 12.4845883 15.00792 13.1180491 15.00792 13.3407285L15.00792 16.0080409M73.3188606 14.8939774L73.3188606 20.8 72.1462424 20.8 72.1462424 5.7714228 73.3188606 5.7714228 73.3188606 7.48310428C74.0827455 6.37679871 75.4786215 5.5 77.0998161 5.5 80.0076621 5.5 81.9661476 7.70642684 81.9661476 11.1991916 81.9661476 14.6685934 80.0076621 16.921059 77.0998161 16.921059 75.5692985 16.921059 74.1981527 16.1315279 73.3188606 14.8939774zM80.7637102 11.2892369C80.7637102 8.62901677 79.3867513 6.6 76.9451833 6.6 75.4289426 6.6 73.9788953 7.79991135 73.3486798 8.84636182L73.3486798 13.7078082C73.9788953 14.7563419 75.4289426 16 76.9451833 16 79.3867513 16 80.7637102 13.9536234 80.7637102 11.2892369z"/>
      <polygon points="83.569 1.6 84.772 1.6 84.772 16.7 83.569 16.7"/>
      <path d="M97.8446609 19.7601096C98.0954141 19.8721396 98.5234119 19.9408697 98.7947749 19.9408697 99.5119975 19.9408697 100.011443 19.6473923 100.46005 18.6109429L101.315359 16.6720677 96.6960054 5.7 98.0040437 5.7 101.96663 15.2081173 105.890745 5.7 107.217332 5.7 101.583287 18.974525C100.998655 20.3422533 100.078768 21 98.8153848 21 98.4361636 21 97.9360312 20.9326445 97.6433714 20.8426081L97.8446609 19.7601096M94.5353758 16.6851012C94.4566129 16.3057462 94.3971953 15.9713056 94.3536684 15.6921445 94.3177415 15.4136744 94.2970145 15.1289853 94.2970145 14.8394593 93.8928366 15.4330222 93.3200787 15.9270821 92.5884132 16.316111 91.8560568 16.707904 91.1603182 16.9 90.2061823 16.9 89.0572118 16.9 88.165257 16.6173839 87.528936 16.0438599 86.8946877 15.4710268 86.5754909 14.6950418 86.5754909 13.713141 86.5754909 12.7326221 87.0377045 11.9365984 87.9593681 11.3278337 88.8810317 10.716305 90.0721472 10.4122682 91.5465326 10.4122682L94.2970145 10.4122682 94.2970145 9.05308522C94.2970145 8.27019033 94.0303262 7.6545157 93.4976405 7.20813432 92.9628823 6.76106195 92.2125624 6.53510729 91.239772 6.53510729 90.3505808 6.53510729 89.6292789 6.74171415 89.0800116 7.14387198 88.5355805 7.55432174 88.2612923 8.06289247 88.2612923 8.67580313L87.0542861 8.67580313 87.0294137 8.61706874C86.9858868 7.79064129 87.3638103 7.06578979 88.1673297 6.43975027 88.9673945 5.81440175 90.0154932 5.5 91.3054077 5.5 92.5911768 5.5 93.6316756 5.8095648 94.4158497 6.4273124 95.1993328 7.03884107 95.5924562 7.92262092 95.5924562 9.07796096L95.5924562 14.4746151C95.5924562 14.8622621 95.6111106 15.2367802 95.6594737 15.6016244 95.7092187 15.9671597 95.7886724 16.3320039 95.8943805 16.6851012L94.5353758 16.6851012zM90.348068 15.9C91.3490205 15.9 92.0683258 15.6749653 92.8035081 15.2297577 93.5338583 14.7873283 94.030883 14.2101559 94.2911307 13.511437L94.2911307 11.4 91.5298823 11.4C90.4750854 11.4 89.6018407 11.6347585 88.9149801 12.1084427 88.226739 12.5807378 87.8781313 13.1523538 87.8781313 13.8170397 87.8781313 14.4442198 88.0990312 14.9456861 88.5380697 15.3256058 88.9784888 15.7096929 89.580441 15.9 90.348068 15.9z"/>
    </g>
    <g fill="#FFF" fill-rule="nonzero" transform="translate(34.37 7.9)">
      <path d="M0.00425573073,3.63110072 C0.00425573073,1.4770941 1.72782667,0.0915057915 3.87107368,0.0915057915 C5.30749785,0.0915057915 6.2469372,0.727902272 6.83227487,1.50721558 L5.78308471,2.07183321 C5.38549686,1.5584862 4.68902786,1.1592163 3.87107368,1.1592163 C2.41325157,1.1592163 1.33023882,2.18462856 1.33023882,3.63110072 C1.33023882,5.05642375 2.41325157,6.10298513 3.87107368,6.10298513 C4.62276322,6.10298513 5.28540964,5.78510733 5.61673285,5.48773778 L5.61673285,4.43092227 L3.40722119,4.43092227 L3.40722119,3.37410677 L6.89853951,3.37410677 L6.89853951,5.92866505 C6.18067256,6.67785688 5.14183624,7.18030888 3.87107368,7.18030888 C1.72782667,7.18030888 0.00425573073,5.77549409 0.00425573073,3.63110072"/>
      <polyline points="8.57 7.076 8.57 .196 13.688 .196 13.688 1.259 9.88 1.259 9.88 3.032 13.61 3.032 13.61 4.095 9.88 4.095 9.88 6.013 13.688 6.013 13.688 7.076 8.57 7.076"/>
      <polyline points="17.169 7.076 17.169 1.259 14.942 1.259 14.942 .196 20.687 .196 20.687 1.259 18.46 1.259 18.46 7.076 17.169 7.076"/>
      <polygon points="25.283 .196 26.537 .196 26.537 7.076 25.283 7.076"/>
      <polyline points="30.123 7.076 30.123 1.259 27.895 1.259 27.895 .196 33.64 .196 33.64 1.259 31.413 1.259 31.413 7.076 30.123 7.076"/>
      <path d="M37.9228165,3.63622824 C37.9228165,1.59141822 39.4993251,0.0915057915 41.7359136,0.0915057915 C43.9599293,0.0915057915 45.5483123,1.59141822 45.5483123,3.63622824 C45.5483123,5.68039645 43.9599293,7.18030888 41.7359136,7.18030888 C39.4993251,7.18030888 37.9228165,5.68039645 37.9228165,3.63622824 Z M44.1903472,3.58378378 C44.1903472,2.1807183 43.2243945,1.13397683 41.7359113,1.13397683 C40.2363252,1.13397683 39.2807815,2.1807183 39.2807815,3.58378378 C39.2807815,4.97605157 40.2363252,6.03359073 41.7359113,6.03359073 C43.2243945,6.03359073 44.1903472,4.97605157 44.1903472,3.58378378 Z"/>
      <polyline points="52.137 7.076 48.3 2.156 48.3 7.076 47.011 7.076 47.011 .196 48.334 .196 52.093 4.962 52.093 .196 53.383 .196 53.383 7.076 52.137 7.076"/>
    </g>
  </g>
</svg>
